<svg width="69" height="69" viewBox="0 0 69 69" fill="none" xmlns="http://www.w3.org/2000/svg">
<path d="M32.1955 5.92969C26.158 6.95391 21.4412 11.6168 20.3361 17.6543C20.0801 19.0559 20.0666 32.6402 20.3226 34.0283C21.0504 38.0309 23.3144 41.4539 26.6432 43.6236C28.0717 44.5535 29.2037 45.0656 30.8344 45.5238C32.0203 45.8473 32.3572 45.8877 34.5 45.8877C36.5349 45.8877 37.0066 45.8473 38.0039 45.5777C43.8932 43.974 48.0305 39.2303 48.7717 33.2197C48.9738 31.6025 48.9738 20.1475 48.7717 18.5303C47.99 12.1559 43.2732 7.10215 37.0605 5.98359C35.9824 5.79492 33.2062 5.75449 32.1955 5.92969ZM36.7506 11.8055C39.7693 12.5871 42.2894 15.2555 42.9094 18.3551C43.2193 19.8914 43.2193 31.8586 42.9094 33.3949C42.276 36.535 39.8098 39.1225 36.6428 39.9715C35.5107 40.268 33.4892 40.2814 32.3572 39.9715C29.2711 39.1629 26.7779 36.5889 26.0906 33.4623C25.7672 32.0203 25.7672 19.7297 26.0906 18.2877C26.8588 14.8242 29.7293 12.1424 33.2197 11.6033C34.1766 11.4551 35.7533 11.5494 36.7506 11.8055Z" fill="white"/>
<path d="M33.4219 17.4656C32.8154 17.7352 32.2494 18.2607 31.926 18.8941C31.6969 19.3389 31.6699 19.7027 31.6699 22.2363C31.6699 24.4869 31.7104 25.1742 31.8721 25.5785C32.7346 27.6269 35.5512 27.8965 36.8584 26.0367L37.2627 25.4437L37.3031 22.4385C37.3436 19.6623 37.3301 19.3793 37.074 18.9076C36.3598 17.5195 34.7695 16.8861 33.4219 17.4656Z" fill="white"/>
<path d="M24.5138 49.2299C23.6244 49.7015 23.1392 50.4832 23.0718 51.5478C23.0314 52.2217 23.0718 52.5316 23.3009 52.9898C23.4896 53.3941 25.0529 55.0383 28.2603 58.2322C31.9259 61.8844 33.058 62.9355 33.4757 63.0703C34.2709 63.3264 35.4568 63.1916 36.0767 62.7603C36.3597 62.5582 38.6373 60.348 41.117 57.8549C46.0629 52.882 46.0359 52.9224 45.9281 51.467C45.7933 49.5533 43.7718 48.3674 41.939 49.1221C41.6156 49.2703 40.241 50.5371 37.9769 52.8012L34.5 56.2512L31.0365 52.8012C28.7589 50.5371 27.3843 49.2703 27.0609 49.1221C26.3062 48.8121 25.2281 48.866 24.5138 49.2299Z" fill="white"/>
</svg>
